<?xml version="1.0" standalone="no"?><!DOCTYPE svg PUBLIC "-//W3C//DTD SVG 1.1//EN" "http://www.w3.org/Graphics/SVG/1.1/DTD/svg11.dtd"><svg class="icon" width="200px" height="200.00px" viewBox="0 0 1024 1024" version="1.1" xmlns="http://www.w3.org/2000/svg"><path fill="#ffffff" d="M206.153143 869.302857 206.153143 393.142857l73.142857 0L279.296 337.846857c0-111.067429 90.038857-201.142857 201.142857-201.142857l73.142857 0c111.067429 0 201.142857 90.075429 201.142857 201.142857L754.724571 393.142857l73.142857 0 0 476.16L206.153143 869.302857zM517.010286 576.292571c30.317714 0 54.857143-24.612571 54.857143-54.966857s-24.539429-54.930286-54.857143-54.930286c-30.317714 0-54.857143 24.576-54.857143 54.930286S486.692571 576.292571 517.010286 576.292571zM675.510857 319.707429c0-60.598857-49.152-109.714286-109.714286-109.714286l-97.536 0c-60.598857 0-109.714286 49.115429-109.714286 109.714286L358.546286 393.142857l316.964571 0L675.510857 319.707429 675.510857 319.707429z" /></svg>